<?xml version="1.0" standalone="no"?>
<!DOCTYPE svg PUBLIC "-//W3C//DTD SVG 20010904//EN"
 "http://www.w3.org/TR/2001/REC-SVG-20010904/DTD/svg10.dtd">
<svg version="1.0" xmlns="http://www.w3.org/2000/svg"
 width="1024.000000pt" height="1024.000000pt" viewBox="0 0 1024.000000 1024.000000"
 preserveAspectRatio="xMidYMid meet">
<metadata>
Created by potrace 1.14, written by Peter Selinger 2001-2017
</metadata>
<g transform="translate(0.000000,1024.000000) scale(0.100000,-0.100000)"
fill="#000000" stroke="none">
<path d="M3712 8524 c-18 -12 -22 -25 -22 -65 l0 -49 -40 0 c-46 0 -90 -34
-90 -70 0 -33 44 -70 83 -70 33 0 35 -1 40 -46 6 -57 26 -78 72 -78 49 0 70
24 69 79 l-1 45 42 0 c49 0 85 31 85 73 0 41 -32 67 -84 67 l-44 0 5 39 c5 33
1 44 -20 65 -30 30 -62 33 -95 10z"/>
<path d="M4425 8476 c-43 -19 -94 -74 -105 -115 -5 -20 -10 -118 -10 -218 l0
-181 -217 -4 c-202 -3 -222 -5 -268 -26 -27 -12 -57 -30 -66 -38 -16 -14 -21
-12 -61 18 -218 167 -555 197 -825 73 -243 -112 -436 -354 -489 -614 -12 -64
-15 -114 -11 -205 6 -137 22 -209 72 -313 87 -185 209 -313 387 -407 173 -92
365 -117 574 -73 72 15 146 38 181 55 80 41 209 138 262 198 24 27 47 48 52
46 5 -1 8 1 7 5 -2 5 18 42 44 83 26 41 48 70 48 63 0 -6 -5 -15 -11 -19 -6
-3 -9 -15 -6 -25 3 -12 0 -19 -10 -19 -8 0 -11 -5 -8 -11 4 -6 14 -8 22 -4 14
5 14 3 2 -11 -12 -14 -14 -14 -26 2 -7 10 -13 13 -13 8 0 -6 5 -15 11 -21 15
-15 3 -47 -12 -37 -8 4 -9 3 -5 -4 6 -11 -108 -168 -149 -205 -20 -18 -182
-139 -260 -194 -30 -22 -41 -37 -43 -61 l-3 -32 -286 0 -286 0 -61 -67 c-33
-38 -81 -87 -105 -110 l-44 -43 -116 0 c-78 0 -121 -4 -129 -12 -9 -9 -12
-135 -12 -505 0 -576 -16 -518 139 -507 l98 7 89 -83 c144 -134 22 -120 1072
-120 l909 0 -22 -87 c-13 -49 -26 -100 -29 -115 l-6 -28 -99 0 c-85 0 -102 -3
-125 -21 -63 -50 -71 -116 -26 -216 16 -36 30 -70 30 -74 0 -5 -396 -9 -880
-9 -858 0 -881 -1 -934 -20 -106 -40 -180 -118 -211 -224 -21 -69 -22 -835 -1
-911 28 -107 87 -180 184 -227 l67 -33 2450 0 2450 0 56 28 c100 49 164 129
193 242 22 80 23 789 2 876 -24 105 -88 188 -181 237 l-50 27 -550 5 c-302 4
-551 7 -553 8 -1 1 13 32 31 70 49 96 52 116 26 168 -30 62 -58 74 -178 74
l-100 0 -11 43 c-12 44 -37 140 -46 170 -5 16 20 17 424 17 473 0 487 2 578
63 57 38 117 114 140 177 11 30 18 93 21 188 3 78 9 142 13 142 15 0 236 -64
410 -120 252 -80 268 -84 285 -70 8 7 17 28 21 49 11 66 56 205 89 278 52 113
119 205 221 302 52 49 94 94 94 99 0 5 -25 42 -55 83 -115 154 -226 421 -271
654 -9 46 -20 88 -23 94 -4 5 -42 17 -85 26 -44 9 -147 36 -230 61 -153 45
-304 83 -408 104 l-57 11 -3 392 -3 392 -27 57 c-37 79 -70 120 -131 162 -84
57 -138 66 -403 66 l-232 0 -4 193 -3 194 -30 48 c-20 32 -45 56 -74 72 l-44
23 -1001 0 c-804 -1 -1007 -3 -1031 -14z m1968 -133 l67 -6 0 -188 0 -189
-1005 0 -1005 0 0 195 0 195 938 0 c515 0 967 -3 1005 -7z m-3243 -542 c0
-148 -2 -155 -61 -170 -96 -25 -222 -129 -270 -224 -35 -68 -52 -156 -46 -241
10 -145 101 -283 236 -354 32 -18 76 -35 97 -40 l39 -8 3 -128 3 -128 -43 7
c-233 39 -458 219 -538 432 -49 130 -60 292 -28 423 39 162 171 340 323 436
68 43 204 94 253 94 l32 0 0 -99z m239 84 c181 -43 361 -187 448 -359 132
-261 92 -569 -101 -783 -97 -106 -252 -200 -364 -219 -20 -3 -45 -8 -54 -11
-17 -4 -18 7 -18 125 l0 130 37 7 c103 19 222 115 275 222 26 53 32 80 36 147
6 118 10 116 -194 116 l-164 0 0 320 c0 365 -11 331 99 305z m3764 -103 c20
-13 52 -45 70 -70 l32 -47 5 -356 c3 -196 4 -364 2 -373 -3 -14 -15 -16 -85
-14 l-82 3 -5 295 c-3 162 -9 303 -13 312 -24 48 -25 48 -539 49 l-483 0 -55
-60 -55 -60 -67 24 c-36 13 -91 29 -122 36 -31 7 -56 13 -57 13 0 1 -3 21 -6
46 -3 25 -10 51 -15 58 -8 9 -57 12 -184 12 -195 0 -194 1 -194 -78 0 -38 -2
-40 -37 -47 -20 -4 -75 -20 -122 -36 l-86 -28 -20 27 c-11 15 -34 43 -52 62
l-31 35 -374 0 -374 0 -65 55 c-96 83 -134 109 -195 134 -30 12 -51 25 -47 29
3 4 729 6 1612 5 l1606 -3 38 -23z m-1598 -319 c4 -27 8 -53 10 -59 2 -6 36
-16 76 -23 93 -15 209 -54 275 -92 28 -16 54 -29 56 -29 3 0 36 41 74 90 l69
90 418 0 417 0 -2 -257 -3 -258 -125 -12 c-69 -6 -131 -12 -138 -12 -7 -1 -21
-20 -31 -43 l-18 -43 -22 68 c-32 102 -71 177 -90 177 -9 -1 -27 -7 -41 -15
-40 -23 -53 -18 -85 35 -32 55 -196 225 -216 225 -7 0 -33 -26 -57 -57 l-45
-57 84 -89 c46 -50 111 -133 143 -186 l59 -96 43 25 c49 29 39 41 91 -110 l34
-100 -47 -43 c-42 -38 -140 -92 -246 -136 -26 -10 -38 -21 -38 -35 0 -11 24
-73 54 -138 29 -65 61 -139 70 -164 l18 -47 -42 -82 c-44 -90 -70 -130 -108
-172 l-25 -27 27 -32 c35 -41 70 -69 88 -69 14 0 38 30 102 124 16 25 27 33
30 25 13 -38 38 -183 47 -278 17 -167 -11 -151 259 -151 l230 0 0 -70 0 -70
-387 0 -388 0 -34 83 c-28 66 -127 274 -135 284 -2 2 -28 -11 -59 -28 l-56
-30 19 -47 c10 -26 39 -94 64 -151 25 -57 46 -105 46 -107 0 -2 -58 -4 -130
-4 l-130 0 0 25 c0 14 -11 37 -25 50 -24 25 -24 25 -235 25 -126 0 -219 -4
-231 -10 -11 -7 -21 -26 -25 -50 l-7 -40 -138 0 -138 0 48 103 c98 208 94 197
74 213 -10 8 -35 23 -55 34 l-36 20 -38 -68 c-21 -37 -61 -119 -89 -182 l-52
-115 -236 -3 -237 -2 0 189 c0 164 -2 191 -16 199 -14 8 -13 12 10 37 36 38
35 87 -2 124 -15 15 -32 30 -37 32 -11 4 -56 114 -108 262 -23 66 -35 87 -49
87 -15 0 -17 6 -12 38 3 20 9 40 13 44 3 4 42 4 86 0 l79 -7 13 -81 c22 -144
102 -356 153 -408 19 -20 20 -20 62 4 58 31 70 41 65 54 -18 47 -18 56 -1 56
13 0 66 27 93 46 2 2 -12 35 -30 74 -31 65 -36 70 -58 65 -14 -4 -38 -16 -53
-27 -16 -11 -30 -19 -32 -17 -15 19 -65 293 -66 361 0 4 -39 9 -87 10 l-88 3
-3 53 -3 52 -55 0 c-29 0 -54 3 -54 6 0 3 8 18 19 32 73 104 141 296 141 400
0 39 6 61 20 79 22 28 26 83 9 114 -5 11 -11 80 -12 154 l-2 135 246 0 c136 0
260 3 276 6 27 5 32 0 91 -85 34 -50 67 -93 73 -96 5 -4 29 4 52 18 67 39 166
74 257 92 47 10 89 21 94 25 4 5 10 28 11 52 2 40 4 43 36 49 75 14 77 13 84
-38z m-2405 -157 c0 -219 -12 -206 186 -206 164 0 165 -2 93 -84 -84 -95 -224
-124 -335 -69 -59 29 -110 80 -141 142 -13 26 -18 59 -18 116 0 108 33 171
124 233 35 23 69 42 77 42 11 0 14 -31 14 -174z m1074 -294 c-19 -5 -20 -4
-28 32 l-7 28 25 -28 c19 -23 21 -30 10 -32z m-213 -245 c-10 -9 -11 -8 -5 6
3 10 9 15 12 12 3 -3 0 -11 -7 -18z m3184 3 c152 -15 369 -60 565 -118 91 -27
199 -57 241 -67 l75 -18 18 -91 c33 -177 120 -396 212 -533 l45 -67 -64 -65
c-34 -36 -78 -85 -96 -109 -46 -60 -114 -193 -146 -283 l-27 -77 -66 29 c-147
63 -432 159 -617 209 -140 38 -360 63 -548 64 -170 1 -178 2 -182 21 -2 11 -9
48 -15 81 -24 137 -94 349 -196 600 -3 6 26 26 63 44 49 24 91 56 149 114 66
67 87 96 119 168 l40 87 85 6 c47 4 90 8 95 10 21 7 144 5 250 -5z m-3375
-539 l0 -38 -59 1 -59 1 36 18 c21 10 46 26 57 37 11 11 21 20 22 20 2 0 3
-17 3 -39z m220 -306 c0 -70 -4 -125 -9 -125 -6 0 -6 -13 0 -32 5 -19 9 -218
9 -449 l-1 -417 -48 -6 c-59 -8 -976 -7 -1009 1 -15 4 -21 11 -18 20 3 8 2 12
-3 9 -5 -4 -7 12 -4 34 5 39 4 41 -82 127 l-88 88 -91 4 c-84 3 -105 10 -106
34 0 5 138 7 308 6 297 -2 308 -2 349 19 113 58 157 136 157 277 1 74 -3 100
-23 142 -59 131 -235 210 -294 131 -20 -26 -20 -27 0 -59 13 -24 29 -36 56
-42 34 -8 97 -64 97 -86 0 -10 -599 -26 -629 -16 -20 6 -21 13 -21 121 l0 114
67 0 c92 0 132 22 237 129 48 50 93 92 99 95 7 2 245 5 530 5 l517 1 0 -125z
m-800 -494 c0 -5 -12 -23 -26 -40 -41 -49 -106 -63 -265 -57 -74 2 -185 5
-246 5 l-113 1 0 50 0 50 325 0 c192 0 325 -4 325 -9z m3906 -51 c16 -5 48
-14 72 -20 l42 -11 0 -137 c0 -129 -2 -142 -26 -191 -32 -64 -86 -105 -155
-120 -34 -8 -476 -11 -1395 -11 l-1345 0 3 118 3 117 483 3 c481 2 484 2 489
-18 12 -47 50 -106 81 -127 102 -67 247 -14 269 100 l9 42 693 3 c493 1 698 5
708 13 9 8 13 43 13 130 0 129 0 128 56 109z m-716 -1011 c0 -6 -7 -23 -15
-37 -8 -15 -24 -48 -35 -75 l-19 -47 -861 2 -862 3 -18 54 c-11 29 -26 64 -35
77 -14 22 -13 23 13 27 15 2 433 5 930 6 648 1 902 -2 902 -10z m-3210 -379
l0 -70 -234 0 c-221 0 -235 -1 -260 -21 -32 -25 -60 -75 -52 -95 4 -12 66 -14
371 -14 l366 0 -3 -67 -3 -67 -310 2 c-170 1 -326 -1 -345 -6 -38 -9 -80 -59
-80 -97 0 -30 33 -35 239 -35 l164 0 -7 -31 c-3 -17 -6 -49 -6 -70 l0 -39
-164 0 c-162 0 -165 0 -195 -26 l-31 -26 0 -129 c0 -133 8 -168 44 -199 15
-11 15 -14 -1 -26 -10 -8 -13 -13 -8 -12 6 1 24 -5 40 -15 47 -26 10 -20 -45
8 -65 33 -98 79 -110 151 -12 69 -12 620 -1 747 8 92 21 121 72 159 55 42 94
47 332 48 l227 0 0 -70z m596 48 c-3 -13 -6 -44 -6 -70 l0 -48 -225 0 -225 0
0 70 0 70 231 0 231 0 -6 -22z m595 18 c2 -2 2 -34 1 -70 l-4 -66 -224 0 -224
0 0 70 0 70 223 0 c123 0 226 -2 228 -4z m709 -66 l0 -70 -280 0 -280 0 0 70
0 70 280 0 280 0 0 -70z m670 0 l0 -70 -265 0 -265 0 0 70 0 70 265 0 265 0 0
-70z m550 0 l0 -70 -205 0 -205 0 0 70 0 70 205 0 205 0 0 -70z m240 -440 l0
-510 29 -32 29 -33 417 -5 c355 -4 417 -7 425 -20 5 -8 10 -10 10 -4 0 6 26
19 58 28 83 23 109 51 117 128 4 35 5 212 3 393 -4 361 -5 369 -63 405 -31 19
-52 20 -459 20 l-426 0 0 70 0 71 423 -3 c399 -3 424 -4 461 -23 56 -28 94
-80 107 -147 8 -41 9 -167 4 -443 -8 -433 -4 -411 -88 -479 l-39 -31 -2356 -3
c-2313 -2 -2434 -1 -2406 27 3 3 655 8 1449 11 1401 5 1444 6 1464 24 19 17
21 30 21 138 l0 118 110 0 c98 0 110 2 120 19 5 11 10 69 10 130 l0 111 158 0
c208 0 198 -8 194 149 l-3 121 54 0 c35 0 59 5 66 14 8 9 12 55 11 133 -1 65
-1 121 -1 126 1 4 24 7 51 7 l50 0 0 -510z m-2590 175 l0 -65 -214 0 -213 0
-7 31 c-3 17 -6 47 -6 65 l0 34 220 0 220 0 0 -65z m592 0 l-4 -65 -219 0
-219 0 0 65 0 65 223 0 222 0 -3 -65z m968 0 l0 -65 -410 0 -410 0 0 65 0 65
410 0 410 0 0 -65z m652 -2 l-3 -68 -247 3 c-136 2 -247 4 -248 5 -1 1 -4 30
-7 65 l-7 62 258 0 257 0 -3 -67z m878 -267 l0 -334 -22 -4 c-13 -2 -94 -2
-180 0 l-158 4 0 69 0 68 33 3 32 3 3 103 3 102 -29 0 c-22 0 -31 6 -35 22 -7
26 8 39 43 36 25 -3 25 -2 28 75 2 42 -2 85 -7 95 -10 16 -10 16 -11 0 0 -13
-8 -18 -30 -18 -30 0 -30 1 -30 55 l0 55 180 0 180 0 0 -334z m440 10 c0 -178
-3 -331 -6 -340 -5 -13 -26 -14 -142 -10 l-137 5 -3 334 -2 335 145 0 145 0 0
-324z m-3855 50 c0 0 -1 -31 -3 -68 l-4 -68 -224 0 -224 0 0 70 0 69 63 4 c51
3 391 -3 392 -7z m2128 4 l57 0 0 -70 0 -70 -225 0 -225 0 0 70 0 69 63 4 c34
2 109 3 167 1 58 -2 131 -3 163 -4z m-1523 -70 l0 -70 -224 0 -223 0 -7 31
c-3 17 -6 49 -6 70 l0 39 230 0 230 0 0 -70z m980 0 l0 -70 -415 0 c-228 0
-415 3 -416 8 0 4 -2 35 -5 70 l-5 62 420 0 421 0 0 -70z m360 -262 l0 -68
-1120 0 -1120 0 0 64 c0 53 3 65 18 69 9 2 513 4 1119 3 l1103 -1 0 -67z
m-2380 20 c0 -94 16 -88 -221 -88 l-209 0 0 65 0 65 215 0 215 0 0 -42z"/>
<path d="M4950 8233 c-256 -3 -266 -4 -282 -24 -23 -27 -23 -62 0 -83 17 -14
53 -16 311 -17 265 -1 294 1 312 17 41 37 14 100 -47 107 -16 2 -148 2 -294 0z"/>
<path d="M5496 8219 c-35 -27 -37 -90 -4 -113 50 -36 128 1 128 59 0 33 -41
75 -73 75 -13 0 -36 -9 -51 -21z"/>
<path d="M5809 8221 c-17 -13 -23 -29 -23 -56 0 -45 31 -75 76 -75 36 0 78 40
78 75 0 61 -82 96 -131 56z"/>
<path d="M6120 8209 c-27 -49 -3 -119 41 -119 22 0 59 46 59 74 0 58 -76 92
-100 45z"/>
<path d="M6657 7383 c-4 -3 -7 -32 -7 -64 0 -66 4 -69 86 -69 l54 0 0 70 0 70
-63 0 c-35 0 -67 -3 -70 -7z"/>
<path d="M4727 7218 c-51 -51 -108 -114 -126 -140 -17 -27 -36 -48 -42 -48 -5
0 -27 9 -48 19 -20 11 -43 16 -49 12 -40 -24 -139 -339 -149 -468 l-6 -83 72
0 c49 0 73 4 75 13 2 6 11 50 20 97 16 88 50 205 65 228 7 11 16 10 49 -7 53
-27 56 -26 71 7 29 62 125 192 195 261 l74 74 -46 63 c-25 35 -49 64 -54 64
-5 0 -50 -42 -101 -92z"/>
<path d="M5453 7190 c-24 -10 -53 -58 -53 -88 0 -15 -12 -22 -57 -32 -184 -40
-312 -176 -321 -342 -6 -101 17 -158 98 -238 77 -77 144 -107 315 -139 234
-45 310 -82 349 -170 16 -35 17 -46 6 -85 -33 -120 -201 -190 -364 -152 -95
23 -160 60 -203 118 -42 58 -59 68 -113 68 -85 0 -118 -88 -62 -166 64 -88
146 -143 278 -185 38 -12 72 -27 76 -33 4 -6 8 -32 8 -57 0 -69 24 -94 89 -94
68 0 85 18 91 97 l5 61 54 14 c139 35 261 124 311 228 32 65 39 173 16 242
-36 105 -128 190 -251 234 -33 11 -123 33 -200 49 -175 35 -238 60 -276 113
-105 145 76 308 298 268 98 -17 170 -56 215 -116 20 -27 47 -53 60 -58 35 -13
85 1 108 30 73 93 -57 241 -271 308 -53 17 -56 20 -67 61 -17 62 -76 89 -139
64z"/>
<path d="M6676 7159 c-20 -16 -26 -29 -26 -60 0 -52 27 -79 78 -79 50 0 82 32
82 82 0 43 -36 78 -80 78 -15 0 -39 -9 -54 -21z"/>
<path d="M4680 5633 c-58 -21 -77 -88 -39 -137 22 -28 73 -36 109 -16 28 15
44 71 29 103 -9 21 -65 60 -81 56 -1 0 -10 -3 -18 -6z"/>
<path d="M6248 5620 c-32 -24 -41 -66 -22 -102 42 -81 154 -54 154 37 0 25 -8
40 -31 59 -37 31 -67 33 -101 6z"/>
<path d="M3305 7048 c-4 -13 -15 -32 -24 -43 -15 -19 -15 -19 3 -5 18 14 40
59 32 67 -2 3 -7 -6 -11 -19z"/>
<path d="M3267 6964 c4 -12 3 -15 -5 -10 -8 4 -10 2 -6 -8 5 -14 40 -14 53 0
3 4 -2 4 -11 1 -12 -4 -18 -1 -18 8 0 7 -4 17 -10 20 -6 4 -7 -1 -3 -11z"/>
<path d="M6960 6680 c-23 -23 -27 -82 -6 -99 8 -7 78 -16 163 -21 168 -11 263
-27 417 -70 101 -28 110 -30 132 -15 24 16 33 66 16 91 -36 56 -401 134 -622
134 -67 0 -83 -3 -100 -20z"/>
<path d="M6980 6483 c-25 -9 -40 -35 -40 -69 0 -48 29 -64 115 -64 132 -1 342
-36 504 -84 92 -28 116 -24 127 20 9 37 -11 73 -51 90 -61 25 -264 74 -370 89
-115 16 -263 25 -285 18z"/>
<path d="M6950 6251 c-16 -30 -12 -76 8 -94 12 -11 36 -17 65 -17 121 0 453
-63 553 -105 20 -8 46 -15 59 -15 50 0 73 72 35 110 -20 20 -159 67 -300 99
-102 24 -239 41 -337 41 -61 0 -74 -3 -83 -19z"/>
<path d="M6961 6041 c-29 -29 -29 -86 2 -105 13 -8 64 -16 123 -20 132 -8 349
-53 483 -101 24 -8 56 -15 72 -15 54 0 66 77 18 112 -65 49 -388 127 -590 143
-80 7 -88 6 -108 -14z"/>
<path d="M6950 5821 c-13 -25 -13 -57 0 -81 7 -12 26 -20 62 -24 196 -24 336
-54 508 -107 52 -16 104 -29 117 -29 30 0 56 40 47 75 -9 35 -34 50 -145 85
-202 62 -395 100 -514 100 -53 0 -66 -3 -75 -19z"/>
<path d="M3531 5794 c-22 -28 -22 -66 0 -89 6 -5 58 -11 117 -13 95 -3 110 -1
130 16 12 11 22 25 22 31 0 7 5 9 10 6 6 -3 10 1 10 9 0 8 5 18 12 22 7 5 8 3
3 -7 -5 -8 0 -7 12 4 11 10 36 17 59 17 21 0 46 5 54 10 11 8 -12 11 -80 11
-52 0 -147 2 -211 5 l-116 6 -22 -28z"/>
<path d="M3554 5602 c-27 -18 -35 -51 -20 -81 19 -37 37 -41 174 -41 108 0
114 1 138 26 20 19 24 31 19 52 -11 47 -28 52 -169 52 -72 0 -136 -4 -142 -8z"/>
<path d="M3555 5275 c-14 -13 -25 -29 -25 -35 0 -16 21 -53 34 -62 6 -4 70 -8
143 -8 125 0 133 1 147 22 23 33 19 64 -10 87 -24 19 -40 21 -146 21 -113 0
-120 -1 -143 -25z"/>
<path d="M6197 3362 c-21 -23 -22 -71 -3 -97 10 -14 31 -21 73 -25 l58 -5 5
-120 c5 -115 6 -120 30 -132 28 -15 67 -9 93 14 15 14 17 36 17 160 0 209 -10
223 -169 223 -72 0 -91 -3 -104 -18z"/>
<path d="M7680 3225 c0 -32 3 -55 7 -52 7 8 5 98 -2 105 -3 3 -5 -21 -5 -53z"/>
<path d="M6995 3590 l-50 -7 53 -1 c29 -1 52 2 52 8 0 6 -1 9 -2 8 -2 0 -25
-4 -53 -8z"/>
<path d="M6877 3568 c2 -5 22 -8 44 -8 21 0 39 -4 39 -10 0 -5 20 -10 45 -10
32 0 45 4 45 14 0 11 -20 15 -89 18 -49 2 -87 0 -84 -4z"/>
<path d="M2965 8365 c-30 -30 -32 -64 -4 -99 41 -53 129 -18 129 51 0 32 -42
73 -75 73 -14 0 -37 -11 -50 -25z"/>
<path d="M6977 8366 c-28 -21 -33 -77 -10 -105 41 -50 123 -19 123 46 0 60
-66 95 -113 59z"/>
<path d="M7500 8280 c-44 -44 -8 -120 57 -120 34 0 73 38 73 70 0 10 -9 29
-21 44 -26 33 -79 36 -109 6z"/>
<path d="M7635 7914 c-26 -26 -16 -76 19 -93 25 -12 31 -11 55 6 32 25 37 47
17 78 -19 29 -66 34 -91 9z"/>
<path d="M7988 7723 c-10 -2 -45 -47 -79 -99 -40 -61 -69 -96 -83 -98 -11 -2
-50 -9 -86 -15 -103 -17 -123 -55 -69 -132 16 -24 46 -67 65 -95 l35 -51 -12
-72 c-13 -86 -7 -115 26 -137 22 -15 28 -14 77 1 29 10 74 28 100 41 l46 23
80 -34 c115 -50 135 -53 166 -22 29 29 30 40 15 138 l-11 70 54 72 c64 84 78
109 78 134 0 40 -23 54 -110 66 l-85 12 -52 80 c-75 114 -99 133 -155 118z
m47 -210 c15 -60 75 -113 128 -113 39 0 39 -12 0 -52 -33 -34 -39 -46 -43 -98
l-5 -59 -49 22 c-51 22 -58 21 -148 -17 -15 -7 -16 -2 -11 47 5 53 5 56 -36
100 l-42 45 50 17 c68 22 95 46 115 100 19 49 30 51 41 8z"/>
<path d="M2335 6475 c-14 -13 -25 -36 -25 -50 0 -33 42 -75 75 -75 33 0 75 42
75 75 0 33 -42 75 -75 75 -14 0 -37 -11 -50 -25z"/>
<path d="M7978 4929 c-27 -15 -24 -74 4 -93 31 -22 51 -20 76 7 27 29 28 51 2
77 -22 22 -55 25 -82 9z"/>
<path d="M7560 4896 c-20 -11 -26 -24 -30 -63 l-5 -48 -42 -3 c-64 -5 -102
-61 -70 -103 18 -24 52 -39 86 -39 30 0 31 -2 31 -44 0 -35 5 -48 22 -60 31
-22 60 -20 92 5 21 16 26 29 26 63 l0 43 39 -1 c50 -1 81 25 81 69 0 43 -27
65 -78 65 l-42 0 0 40 c0 30 -7 47 -25 65 -27 28 -49 31 -85 11z"/>
<path d="M2615 4568 c-31 -17 -45 -39 -45 -74 0 -37 38 -74 75 -74 35 0 75 37
75 70 0 42 -9 59 -41 75 -33 18 -38 18 -64 3z"/>
<path d="M7937 4550 c-19 -15 -27 -31 -27 -54 0 -50 24 -76 70 -76 46 0 70 26
70 76 0 58 -67 90 -113 54z"/>
<path d="M3051 4526 c-7 -8 -11 -32 -9 -53 2 -30 9 -41 31 -51 24 -12 31 -11
52 2 55 36 35 116 -29 116 -18 0 -39 -6 -45 -14z"/>
<path d="M4156 4508 c-42 -59 15 -135 78 -107 67 31 44 129 -30 129 -23 0 -38
-7 -48 -22z"/>
<path d="M7257 4502 c-33 -37 -7 -112 39 -112 64 0 93 87 40 122 -20 14 -63 8
-79 -10z"/>
<path d="M6858 4499 c-46 -26 -45 -90 3 -114 36 -19 76 -6 89 30 23 59 -39
116 -92 84z"/>
<path d="M3660 4473 c-64 -23 -46 -123 23 -123 26 0 67 40 67 65 0 33 -57 70
-90 58z"/>
<path d="M3880 2439 c-56 -23 -100 -84 -100 -141 0 -50 -10 -76 -31 -81 -21
-6 -39 -44 -39 -83 0 -17 9 -30 30 -42 l30 -17 0 -132 c0 -120 2 -135 20 -153
29 -29 84 -27 115 5 24 23 25 29 25 155 l0 130 25 0 c29 0 61 29 76 67 19 50
-10 79 -74 75 -27 -2 -28 0 -25 35 l3 38 58 0 c50 0 62 4 78 24 33 41 21 89
-31 116 -33 17 -122 19 -160 4z"/>
<path d="M5899 2427 c-46 -35 -50 -94 -10 -139 41 -46 92 -45 133 1 26 29 30
39 25 75 -4 25 -14 48 -27 58 -26 21 -97 24 -121 5z"/>
<path d="M6643 2420 c-12 -5 -26 -18 -32 -29 -7 -12 -11 -120 -11 -299 0 -278
0 -279 23 -300 15 -14 36 -22 60 -22 50 0 77 28 77 79 0 22 5 43 11 47 7 4 37
-21 73 -60 55 -58 66 -66 99 -66 44 0 77 28 77 66 0 17 -21 53 -61 102 -34 42
-63 82 -66 89 -3 7 22 40 56 74 33 34 61 65 61 71 0 24 -50 58 -85 58 -31 0
-46 -9 -101 -62 l-64 -61 0 131 c0 72 -3 138 -6 147 -7 17 -55 45 -76 44 -7 0
-23 -4 -35 -9z"/>
<path d="M5063 2353 c-31 -6 -44 -26 -48 -75 -2 -24 -4 -46 -4 -49 -1 -4 -13
-10 -28 -14 -34 -8 -43 -21 -43 -60 0 -38 9 -51 41 -64 25 -9 26 -13 31 -115
5 -82 10 -112 26 -138 52 -83 184 -97 212 -22 14 36 -4 71 -45 88 l-36 15 3
83 3 83 32 3 c37 4 63 33 63 73 0 34 -29 59 -68 59 l-32 0 0 55 c0 42 -4 56
-17 63 -26 13 -64 19 -90 15z"/>
<path d="M5600 2346 c-36 -12 -47 -33 -49 -92 -1 -27 -6 -32 -31 -38 -63 -12
-66 -102 -4 -120 l31 -9 5 -107 c6 -117 19 -155 67 -189 42 -30 120 -29 149 2
24 26 29 78 9 95 -6 6 -24 13 -40 17 -27 7 -27 7 -27 96 l0 89 29 0 c35 0 61
31 61 72 0 35 -24 58 -61 58 -28 0 -29 2 -29 48 0 26 -4 53 -8 60 -14 21 -65
30 -102 18z"/>
<path d="M7610 2349 c-33 -14 -40 -26 -40 -81 0 -44 -2 -48 -24 -48 -32 0 -50
-25 -49 -66 1 -42 18 -64 48 -64 23 0 23 -3 27 -113 3 -106 5 -116 30 -149 39
-51 100 -73 153 -56 76 25 81 110 8 131 -27 8 -33 16 -38 48 -4 22 -4 62 0 89
6 47 9 50 35 50 34 0 60 31 60 72 0 35 -24 58 -61 58 -28 0 -29 1 -29 49 0 49
-17 81 -43 81 -7 0 -21 2 -32 5 -11 2 -31 0 -45 -6z"/>
<path d="M2407 2210 l-27 -21 0 -269 c0 -248 1 -270 19 -291 28 -35 95 -33
127 4 20 23 24 39 24 93 0 35 2 64 4 64 2 0 21 -7 42 -16 98 -41 229 35 269
156 38 113 -19 239 -127 284 -52 22 -135 20 -179 -3 -31 -17 -38 -18 -50 -5
-26 26 -72 28 -102 4z m274 -137 c76 -45 47 -163 -41 -163 -86 0 -116 124 -41
165 34 19 47 18 82 -2z"/>
<path d="M3059 2221 c-44 -14 -89 -53 -117 -101 -23 -38 -27 -57 -27 -120 0
-69 3 -80 34 -128 46 -73 104 -106 185 -106 37 0 73 7 92 17 36 18 84 72 84
92 0 14 -55 65 -70 65 -5 0 -30 -11 -56 -25 -46 -25 -48 -25 -78 -7 -17 10
-32 26 -34 35 -3 15 9 17 115 17 65 0 125 5 133 10 10 6 15 26 15 63 0 69 -42
141 -99 171 -43 22 -135 31 -177 17z m118 -135 c15 -13 25 -27 22 -31 -4 -3
-38 -5 -75 -3 l-69 3 27 28 c33 33 58 34 95 3z"/>
<path d="M3417 2210 l-27 -21 0 -194 c0 -189 1 -194 22 -209 28 -20 78 -21
104 -2 16 12 20 31 24 136 6 137 13 150 81 150 29 0 42 6 58 26 66 84 -36 178
-117 109 -29 -24 -30 -25 -43 -5 -22 31 -69 36 -102 10z"/>
<path d="M4176 2215 c-106 -37 -166 -163 -132 -277 41 -142 190 -213 313 -149
82 41 95 101 31 136 l-37 20 -30 -23 c-39 -29 -82 -28 -109 1 -12 13 -22 26
-22 30 0 4 54 7 119 7 139 0 151 6 151 76 0 138 -144 229 -284 179z m122 -121
c42 -29 28 -44 -43 -44 -69 0 -78 7 -45 40 24 24 57 26 88 4z"/>
<path d="M4621 2204 c-95 -48 -147 -167 -116 -269 36 -124 154 -194 276 -165
62 15 129 70 129 105 0 50 -83 83 -126 50 -23 -18 -73 -19 -95 -2 -48 37 -52
104 -8 141 37 31 48 32 101 5 94 -48 172 36 99 108 -58 59 -173 70 -260 27z"/>
<path d="M6245 2216 c-83 -36 -145 -130 -145 -220 0 -134 138 -253 267 -231
55 9 114 45 136 82 l19 33 -30 30 c-33 33 -63 37 -102 15 -63 -36 -132 1 -134
72 -2 75 55 108 124 73 21 -11 49 -20 60 -20 31 0 80 52 74 78 -8 28 -63 77
-103 91 -45 15 -129 13 -166 -3z"/>
<path d="M7205 2219 c-46 -13 -100 -63 -125 -116 -41 -87 -23 -198 44 -271 79
-88 235 -90 305 -5 37 45 38 53 9 80 -37 33 -65 37 -94 14 -39 -30 -87 -28
-114 7 l-22 27 124 3 c140 3 148 7 148 76 -1 137 -135 227 -275 185z m123
-136 c21 -29 14 -33 -53 -33 -36 0 -65 4 -65 9 0 5 12 19 27 31 30 24 69 20
91 -7z"/>
<path d="M5906 2207 c-25 -18 -36 -78 -35 -202 0 -137 11 -204 35 -222 25 -18
78 -16 103 5 19 16 21 29 23 205 3 188 3 189 -21 208 -27 22 -79 25 -105 6z"/>
</g>
</svg>
